<svg width="168" height="46" viewBox="0 0 168 46" fill="none" xmlns="http://www.w3.org/2000/svg">
<path d="M152.316 8.768C157.009 8.768 160.721 10.0267 163.452 12.544C166.225 15.0613 167.612 18.496 167.612 22.848C167.612 24.2987 167.505 25.5787 167.292 26.688C167.036 28.0533 166.78 29.0347 166.524 29.632H142.78C142.737 29.888 142.716 30.272 142.716 30.784C142.716 32.4053 143.1 33.6 143.868 34.368C144.679 35.136 145.745 35.52 147.068 35.52C149.159 35.52 150.823 34.5813 152.06 32.704H165.372C164.391 35.1787 162.919 37.3973 160.956 39.36C159.036 41.28 156.753 42.7947 154.108 43.904C151.505 45.0133 148.732 45.568 145.788 45.568C141.095 45.568 137.361 44.288 134.588 41.728C131.815 39.168 130.428 35.648 130.428 31.168C130.428 29.888 130.556 28.544 130.812 27.136C131.495 23.3813 132.839 20.1387 134.844 17.408C136.892 14.6347 139.409 12.5013 142.396 11.008C145.425 9.51467 148.732 8.768 152.316 8.768ZM154.94 24C155.025 23.4027 155.068 23.0187 155.068 22.848C155.068 21.4827 154.641 20.4587 153.788 19.776C152.935 19.0507 151.825 18.688 150.46 18.688C148.881 18.688 147.516 19.136 146.364 20.032C145.212 20.928 144.359 22.2507 143.804 24H154.94Z" fill="white"/>
<path d="M117.017 8.896C120.516 8.896 123.246 9.92 125.209 11.968C127.214 13.9733 128.217 16.768 128.217 20.352C128.217 21.5467 128.089 22.8267 127.833 24.192L124.121 45.12H111.577L114.969 25.856C115.097 25.216 115.161 24.64 115.161 24.128C115.161 22.592 114.713 21.3973 113.817 20.544C112.964 19.6907 111.748 19.264 110.169 19.264C108.377 19.264 106.862 19.8187 105.625 20.928C104.388 22.0373 103.556 23.5733 103.129 25.536L99.673 45.12H87.065L93.465 9.216H106.009L105.113 14.336C106.521 12.7147 108.249 11.4133 110.297 10.432C112.345 9.408 114.585 8.896 117.017 8.896Z" fill="white"/>
<path d="M64.3615 45.568C61.2468 45.568 58.4735 44.9493 56.0415 43.712C53.6522 42.4747 51.7962 40.7253 50.4735 38.464C49.1508 36.2027 48.4895 33.5573 48.4895 30.528C48.4895 26.432 49.4495 22.72 51.3695 19.392C53.3322 16.064 56.0202 13.4613 59.4335 11.584C62.8468 9.70667 66.6655 8.768 70.8895 8.768C74.0042 8.768 76.7562 9.38667 79.1455 10.624C81.5775 11.8613 83.4548 13.632 84.7775 15.936C86.1428 18.1973 86.8255 20.8427 86.8255 23.872C86.8255 28.0107 85.8442 31.744 83.8815 35.072C81.9188 38.3573 79.2308 40.9387 75.8175 42.816C72.4042 44.6507 68.5855 45.568 64.3615 45.568ZM66.2815 34.752C67.7748 34.752 69.0975 34.2827 70.2495 33.344C71.4442 32.4053 72.3402 31.1893 72.9375 29.696C73.5775 28.2027 73.8975 26.6667 73.8975 25.088C73.8975 23.296 73.4282 21.9307 72.4895 20.992C71.5935 20.0533 70.4202 19.584 68.9695 19.584C67.4335 19.584 66.0895 20.0533 64.9375 20.992C63.8282 21.9307 62.9535 23.1467 62.3135 24.64C61.7162 26.1333 61.4175 27.6907 61.4175 29.312C61.4175 31.104 61.8655 32.4693 62.7615 33.408C63.6575 34.304 64.8308 34.752 66.2815 34.752Z" fill="white"/>
<path d="M41.856 45.12H29.248L17.088 19.904L12.608 45.12H0L8 0H20.544L32.768 25.536L37.248 0H49.792L41.856 45.12Z" fill="white"/>
</svg>
